<svg width="26" height="29" viewBox="0 0 26 29" fill="none" xmlns="http://www.w3.org/2000/svg">
<g filter="url(#filter0_d_8121_200)">
<path fill-rule="evenodd" clip-rule="evenodd" d="M6 3C4.89543 3 4 3.89545 4 5V19C4 20.1046 4.89543 21 6 21H20C21.1046 21 22 20.1046 22 19V5C22 3.89545 21.1046 3 20 3H6ZM9 13C9 12.4477 8.55228 12 8 12C7.44772 12 7 12.4477 7 13V17C7 17.5523 7.44772 18 8 18C8.55228 18 9 17.5523 9 17V13ZM13 9C13.5523 9 14 9.44769 14 10V17C14 17.5523 13.5523 18 13 18C12.4477 18 12 17.5523 12 17V10C12 9.44769 12.4477 9 13 9ZM19 7C19 6.44769 18.5523 6 18 6C17.4477 6 17 6.44769 17 7V17C17 17.5523 17.4477 18 18 18C18.5523 18 19 17.5523 19 17V7Z" fill="white"/>
</g>
<defs>
<filter id="filter0_d_8121_200" x="0" y="3" width="26" height="26" filterUnits="userSpaceOnUse" color-interpolation-filters="sRGB">
<feFlood flood-opacity="0" result="BackgroundImageFix"/>
<feColorMatrix in="SourceAlpha" type="matrix" values="0 0 0 0 0 0 0 0 0 0 0 0 0 0 0 0 0 0 127 0" result="hardAlpha"/>
<feOffset dy="4"/>
<feGaussianBlur stdDeviation="2"/>
<feComposite in2="hardAlpha" operator="out"/>
<feColorMatrix type="matrix" values="0 0 0 0 0 0 0 0 0 0 0 0 0 0 0 0 0 0 0.25 0"/>
<feBlend mode="normal" in2="BackgroundImageFix" result="effect1_dropShadow_8121_200"/>
<feBlend mode="normal" in="SourceGraphic" in2="effect1_dropShadow_8121_200" result="shape"/>
</filter>
</defs>
</svg>
